<svg xmlns="http://www.w3.org/2000/svg" viewBox="0 0 64 64"><g id="_22-Circle" data-name="22-Circle"><path d="M58.61,39.69v.01A28.008,28.008,0,0,1,35,58.84V63l-8-9,8-9v3.73A16.988,16.988,0,0,0,48.19,37.19L53,42l5.88-3.19C58.8,39.1,58.71,39.4,58.61,39.69Z" style="fill:#319aeb"/><path d="M63,30l-9,8-7-8h1.88A17.025,17.025,0,0,0,37.25,15.82L43,11,39,4A27.862,27.862,0,0,1,59.97,30Z" style="fill:#48befd"/><path d="M31,1l8,9-8,7V15.03A17.017,17.017,0,0,0,15.59,27.52L11,21,4.47,25.91c.05-.31.11-.6.18-.9A27.976,27.976,0,0,1,31,3.03Z" style="fill:#319aeb"/><path d="M26.81,48.19,22,52l3.49,6.23A28.01,28.01,0,0,1,4.16,34H1l8-8,9,8H15.12A16.993,16.993,0,0,0,26.81,48.19Z" style="fill:#6bdcff"/><path d="M63,30H59.97A27.663,27.663,0,0,0,49.564,9.293a2.869,2.869,0,0,0-4.184.637h0a2.838,2.838,0,0,0,.613,3.824,23.02,23.02,0,0,1,8.28,24Z" style="fill:#6bdcff"/><path d="M32,55a23.145,23.145,0,0,1-4.506-.444L35,63V58.84A27.928,27.928,0,0,0,54.412,47.75a2.192,2.192,0,0,0-.7-3.2h0a2.208,2.208,0,0,0-2.905.668A22.953,22.953,0,0,1,32,55Z" style="fill:#2a84c9"/><path d="M9,32a23.024,23.024,0,0,1,.649-5.423L9,26,1,34H4.16A27.986,27.986,0,0,0,16.791,54.5a2.081,2.081,0,0,0,3.083-1.118h0a2.073,2.073,0,0,0-.794-2.371A22.947,22.947,0,0,1,9,32Z" style="fill:#48befd"/><path d="M31,1V3.03A27.887,27.887,0,0,0,9.663,14.138a2.823,2.823,0,0,0,.782,4.129h0a2.782,2.782,0,0,0,3.6-.615,22.983,22.983,0,0,1,24.88-7.588L39,10Z" style="fill:#48befd"/><path d="M58.829,23A27.964,27.964,0,0,0,39,4l4,7-5.75,4.82A17.025,17.025,0,0,1,48.88,30H47l7,8,9-8H59.97a27.849,27.849,0,0,0-.624-5" style="fill:none;stroke:#000;stroke-linejoin:round;stroke-width:2px"/><path d="M52,50.588q.75-.767,1.44-1.588" style="fill:none;stroke:#000;stroke-linejoin:round;stroke-width:2px"/><path d="M55,46.96a27.851,27.851,0,0,0,3.61-7.26v-.01c.1-.29.19-.59.27-.88l.01-.01-.01.01L53,42l-4.81-4.81A16.988,16.988,0,0,1,35,48.73V45l-8,9,8,9V58.84A27.859,27.859,0,0,0,50.514,52" style="fill:none;stroke:#000;stroke-linejoin:round;stroke-width:2px"/><path d="M4.885,38a27.894,27.894,0,0,1-.725-4H1l8-8,9,8H15.12A16.993,16.993,0,0,0,26.81,48.19L22,52l3.49,6.23A28.031,28.031,0,0,1,5.481,40" style="fill:none;stroke:#000;stroke-linejoin:round;stroke-width:2px"/><path d="M10.557,13Q9.734,13.98,9,15.034" style="fill:none;stroke:#000;stroke-linejoin:round;stroke-width:2px"/><path d="M7.751,17a27.823,27.823,0,0,0-3.1,8.01c-.07.3-.13.59-.18.9v0L11,21l4.59,6.52v0A17.017,17.017,0,0,1,31,15.03V17l8-7L31,1V3.03a27.856,27.856,0,0,0-19,8.379" style="fill:none;stroke:#000;stroke-linejoin:round;stroke-width:2px"/></g></svg>