<svg xmlns="http://www.w3.org/2000/svg" viewBox="0 0 48 48"><defs><style>.cls-1{fill:#192835;}.cls-2{fill:#4891d3;}.cls-3{fill:#2d72bc;}.cls-4{fill:#a1d51c;}</style></defs><title>Group</title><g id="Group"><path class="cls-1" d="M28.24,12.75A6,6,0,0,0,18,17v2a6,6,0,0,0,1.1,3.46,6.21,6.21,0,0,0,.9,1l.08.06a4,4,0,0,0,.34.27l.22.15.19.13,0,0a5.22,5.22,0,0,0,1,.47l.49.17a5.56,5.56,0,0,0,1,.2,5.13,5.13,0,0,0,1.24,0,6,6,0,0,0,1.09-.2l.48-.17.49-.21.2-.11a.05.05,0,0,0,0,0,.78.78,0,0,0,.18-.11l.2-.12.17-.11.12-.09c.12-.09.24-.18.35-.28l.08-.06a6.21,6.21,0,0,0,.9-1A6,6,0,0,0,30,19V17A6,6,0,0,0,28.24,12.75Zm-1.66,9.31a.28.28,0,0,1-.08.06l-.13.1-.31.21-.12.06a0,0,0,0,1,0,0l-.1.05h0l.47.88-.56-.84-.29.13-.31.11a4.64,4.64,0,0,1-.76.14,3.09,3.09,0,0,1-.8,0,3.45,3.45,0,0,1-.7-.13h0a2.39,2.39,0,0,1-.32-.11l-.29-.13-.44.9.35-.95a.94.94,0,0,1-.22-.12l-.09-.05-.12-.08-.13-.1-.06,0-.12-.1h0L21.3,22A4,4,0,0,1,20,19V17a4,4,0,0,1,6.83-2.84A4,4,0,0,1,28,17v2A4,4,0,0,1,26.7,22,.63.63,0,0,0,26.58,22.06Z"/><path class="cls-2" d="M28,17v2A4,4,0,0,1,26.7,22a.63.63,0,0,0-.12.11.28.28,0,0,1-.08.06l-.13.1-.31.21-.12.06a0,0,0,0,1,0,0l-.1.05h0l-.09,0-.29.13-.31.11a4.64,4.64,0,0,1-.76.14,3.09,3.09,0,0,1-.8,0,3.45,3.45,0,0,1-.7-.13h0l-.32-.11-.29-.13-.08,0h0a.94.94,0,0,1-.22-.12l-.09-.05-.12-.08-.13-.1-.06,0-.12-.1h0L21.3,22A4,4,0,0,1,20,19V17a4,4,0,0,1,6.83-2.84A4,4,0,0,1,28,17Z"/><path class="cls-1" d="M39.53,15.46A5,5,0,0,0,31,19v2a4.93,4.93,0,0,0,.58,2.32,4.66,4.66,0,0,0,.64.95A5,5,0,0,0,33,25a3,3,0,0,0,.37.25,1.13,1.13,0,0,0,.21.12,4.92,4.92,0,0,0,4.82,0l.21-.12A3,3,0,0,0,39,25a5,5,0,0,0,.79-.73,4.66,4.66,0,0,0,.64-.95A4.93,4.93,0,0,0,41,21V19A5,5,0,0,0,39.53,15.46ZM33,19a3,3,0,1,1,6,0v2a3,3,0,0,1-6,0Z"/><path class="cls-3" d="M39,19v2a3,3,0,0,1-6,0V19a3,3,0,1,1,6,0Z"/><path class="cls-1" d="M40.42,23.32a6.07,6.07,0,0,0-1-.59,1,1,0,0,0-1.21.24,3,3,0,0,1-4.52,0,1,1,0,0,0-1.21-.24,7.16,7.16,0,0,0-1,.59,6.33,6.33,0,0,0-1.69,1.92,1,1,0,0,0,0,1A7,7,0,0,1,31,30v2a1,1,0,0,0,1,1H42a1,1,0,0,0,1-1V28.5A6.4,6.4,0,0,0,40.42,23.32ZM41,31H33V30a9,9,0,0,0-1.06-4.24,4,4,0,0,1,.9-.88A1.77,1.77,0,0,0,33,25a3,3,0,0,0,.37.25,1.13,1.13,0,0,0,.21.12,5.26,5.26,0,0,0,4.82,0l.21-.12A3,3,0,0,0,39,25l.17-.13A4.46,4.46,0,0,1,41,28.5Z"/><path class="cls-3" d="M41,28.5V31H33V30a9,9,0,0,0-1.06-4.24,4,4,0,0,1,.9-.88A1.77,1.77,0,0,0,33,25a3,3,0,0,0,.37.25,1.13,1.13,0,0,0,.21.12,4.92,4.92,0,0,0,4.82,0l.21-.12A3,3,0,0,0,39,25l.17-.13A4.46,4.46,0,0,1,41,28.5Z"/><path class="cls-1" d="M31.62,25.21a8.43,8.43,0,0,0-1.25-1.58,8.21,8.21,0,0,0-1.47-1.17,7.73,7.73,0,0,0-1.16-.64,1,1,0,0,0-1,.12h0a.63.63,0,0,0-.12.11.28.28,0,0,1-.08.06l-.13.1-.31.21-.12.06a0,0,0,0,1,0,0l-.1.06-.09,0-.29.13-.31.11a4.64,4.64,0,0,1-.76.14,3.09,3.09,0,0,1-.8,0,3.45,3.45,0,0,1-.7-.13h0l-.32-.11-.29-.13-.08,0h0a.94.94,0,0,1-.22-.12l-.09-.05-.12-.08-.13-.1-.06,0-.12-.1h0L21.3,22h0a1,1,0,0,0-1-.12,9.13,9.13,0,0,0-3.87,3.37A9,9,0,0,0,15,30v4a1,1,0,0,0,1,1H32a1,1,0,0,0,1-1V30A8.94,8.94,0,0,0,31.62,25.21ZM31,33H17V30a7.06,7.06,0,0,1,1.09-3.75,6.89,6.89,0,0,1,2.46-2.34l.09.05.19.13,0,0a5.22,5.22,0,0,0,1,.47l.49.17a5.56,5.56,0,0,0,1,.2,5.13,5.13,0,0,0,1.24,0,6,6,0,0,0,1.09-.2h0l.46-.17.49-.21.2-.11a.05.05,0,0,0,0,0,.78.78,0,0,0,.18-.11l.2-.12.17-.11A6.33,6.33,0,0,1,29,25.05a6.27,6.27,0,0,1,1,1.22A7,7,0,0,1,31,30Z"/><path class="cls-2" d="M31,30v3H17V30a7.06,7.06,0,0,1,1.09-3.75,6.89,6.89,0,0,1,2.46-2.34l.28.18,0,0a5.22,5.22,0,0,0,1,.47l.49.17a5.56,5.56,0,0,0,1,.2,5.13,5.13,0,0,0,1.24,0,6,6,0,0,0,1.09-.2h0l.46-.17.49-.21.2-.11a.05.05,0,0,0,0,0,.78.78,0,0,0,.18-.11l.2-.12.17-.11A6.33,6.33,0,0,1,29,25.05a6.27,6.27,0,0,1,1,1.22A7,7,0,0,1,31,30Z"/><path class="cls-1" d="M15.53,15.46A5,5,0,0,0,7,19v2a4.93,4.93,0,0,0,.58,2.32,4.66,4.66,0,0,0,.64.95A5,5,0,0,0,9,25a3,3,0,0,0,.37.25l.21.12a4.92,4.92,0,0,0,4.82,0l.21-.12A3,3,0,0,0,15,25a5,5,0,0,0,.79-.73,4.66,4.66,0,0,0,.64-.95A4.93,4.93,0,0,0,17,21V19A5,5,0,0,0,15.53,15.46ZM9,19a3,3,0,1,1,6,0v2a3,3,0,0,1-6,0Z"/><path class="cls-3" d="M15,19v2a3,3,0,0,1-6,0V19a3,3,0,1,1,6,0Z"/><path class="cls-1" d="M18.11,25.22a6.39,6.39,0,0,0-2.64-2.49,1,1,0,0,0-1.21.24,3,3,0,0,1-4.52,0,1,1,0,0,0-1.21-.24,6.07,6.07,0,0,0-.95.59A6.43,6.43,0,0,0,5,28.5V32a1,1,0,0,0,1,1H16a1,1,0,0,0,1-1V30a7.06,7.06,0,0,1,1.09-3.75A1,1,0,0,0,18.11,25.22ZM15,30v1H7V28.5a4.46,4.46,0,0,1,1.84-3.63L9,25a3,3,0,0,0,.37.25l.21.12a5.26,5.26,0,0,0,4.82,0l.21-.12A3,3,0,0,0,15,25l.17-.13a4.42,4.42,0,0,1,.9.88A9.13,9.13,0,0,0,15,30Z"/><path class="cls-3" d="M16.06,25.75A9.13,9.13,0,0,0,15,30v1H7V28.5a4.46,4.46,0,0,1,1.84-3.63L9,25a3,3,0,0,0,.37.25l.21.12a4.92,4.92,0,0,0,4.82,0l.21-.12A3,3,0,0,0,15,25l.17-.13A4.42,4.42,0,0,1,16.06,25.75Z"/><path class="cls-4" d="M24,42a17.88,17.88,0,0,1-12.73-5.27,1,1,0,1,1,1.42-1.42,16,16,0,0,0,22.62,0,1,1,0,0,1,1.42,1.42A17.88,17.88,0,0,1,24,42Z"/><path class="cls-4" d="M12,13a1,1,0,0,1-.71-.29,1,1,0,0,1,0-1.42,18,18,0,0,1,25.46,0,1,1,0,0,1-1.42,1.42,16,16,0,0,0-22.62,0A1,1,0,0,1,12,13Z"/></g></svg>