<?xml version="1.0" encoding="iso-8859-1"?>
<!-- Generator: Adobe Illustrator 22.0.1, SVG Export Plug-In . SVG Version: 6.00 Build 0)  -->
<svg version="1.1" id="Layer_1" xmlns="http://www.w3.org/2000/svg" xmlns:xlink="http://www.w3.org/1999/xlink" x="0px" y="0px"
	 viewBox="0 0 128 128" style="enable-background:new 0 0 128 128;" xml:space="preserve">
<path style="fill:#D0ECEE;" d="M64,5.27c-21.31,0-38.64,17.33-38.64,38.64c0,14.9,9.21,26.08,14.69,31.42
	c3.27,3.18,5.18,6.94,6.85,10.25c0.3,0.59,0.59,1.16,0.88,1.71h32.43c0.29-0.55,0.58-1.12,0.87-1.69c1.69-3.32,3.59-7.08,6.87-10.27
	c5.48-5.34,14.69-16.52,14.69-31.42C102.64,22.61,85.3,5.27,64,5.27z"/>
<path style="fill:#1D252C;" d="M39.05,38.75l2.48,2.49c12.39-12.39,32.55-12.39,44.94,0l2.48-2.49C75.19,25,52.81,25,39.05,38.75z
	 M46.59,46.3l2.48,2.48c8.23-8.23,21.62-8.23,29.85,0l2.49-2.48C71.81,36.7,56.19,36.7,46.59,46.3z M54.13,53.84l2.49,2.48
	c4.07-4.07,10.69-4.07,14.76,0l2.48-2.48C68.42,48.4,59.57,48.4,54.13,53.84z M54.31,122.94c2.15,3.05,5.69,5.06,9.71,5.06
	c4.02,0,7.57-2,9.72-5.06H54.31z M39.05,38.75l2.48,2.49c12.39-12.39,32.55-12.39,44.94,0l2.48-2.49C75.19,25,52.81,25,39.05,38.75z
	 M46.59,46.3l2.48,2.48c8.23-8.23,21.62-8.23,29.85,0l2.49-2.48C71.81,36.7,56.19,36.7,46.59,46.3z M54.13,53.84l2.49,2.48
	c4.07-4.07,10.69-4.07,14.76,0l2.48-2.48C68.42,48.4,59.57,48.4,54.13,53.84z M64,0C51.9,0,40.92,4.92,32.97,12.88
	c-7.95,7.95-12.88,18.92-12.88,31.03c0,16.84,10.21,29.28,16.29,35.2c2.64,2.57,4.26,5.76,5.82,8.85c0.31,0.62,0.62,1.22,0.92,1.8
	c0.94,1.78,2.4,2.8,4,2.8h33.75c1.61,0,3.06-1.02,4-2.8c0.3-0.58,0.6-1.17,0.91-1.78c1.57-3.1,3.2-6.3,5.84-8.87
	c6.08-5.92,16.29-18.36,16.29-35.2C107.91,19.7,88.21,0,64,0z M87.95,75.33c-3.28,3.19-5.18,6.95-6.87,10.27
	c-0.29,0.57-0.58,1.14-0.87,1.69H47.78c-0.29-0.55-0.58-1.12-0.88-1.71c-1.67-3.31-3.58-7.07-6.85-10.25
	c-5.48-5.34-14.69-16.52-14.69-31.42C25.36,22.6,42.69,5.27,64,5.27c21.3,0,38.64,17.34,38.64,38.64
	C102.64,58.81,93.43,69.99,87.95,75.33z M39.05,38.75l2.48,2.49c12.39-12.39,32.55-12.39,44.94,0l2.48-2.49
	C75.19,25,52.81,25,39.05,38.75z M46.59,46.3l2.48,2.48c8.23-8.23,21.62-8.23,29.85,0l2.49-2.48C71.81,36.7,56.19,36.7,46.59,46.3z
	 M54.13,53.84l2.49,2.48c4.07-4.07,10.69-4.07,14.76,0l2.48-2.48C68.42,48.4,59.57,48.4,54.13,53.84z M80.23,113.42H47.77
	c-1.46,0-2.64,1.18-2.64,2.63c0,1.46,1.18,2.64,2.64,2.64h32.46c1.46,0,2.64-1.18,2.64-2.64C82.87,114.6,81.69,113.42,80.23,113.42z
	 M80.23,104.64H47.77c-1.46,0-2.64,1.18-2.64,2.63c0,1.46,1.18,2.64,2.64,2.64h32.46c1.46,0,2.64-1.18,2.64-2.64
	C82.87,105.82,81.69,104.64,80.23,104.64z M80.23,95.86H47.77c-1.46,0-2.64,1.18-2.64,2.63c0,1.46,1.18,2.64,2.64,2.64h32.46
	c1.46,0,2.64-1.18,2.64-2.64C82.87,97.04,81.69,95.86,80.23,95.86z"/>
</svg>
