<?xml version="1.0" encoding="utf-8"?>
<!-- Generator: Adobe Illustrator 21.0.0, SVG Export Plug-In . SVG Version: 6.00 Build 0)  -->
<svg version="1.1" id="Layer_1" xmlns="http://www.w3.org/2000/svg" xmlns:xlink="http://www.w3.org/1999/xlink" x="0px" y="0px"
	 viewBox="0 0 512 512" style="enable-background:new 0 0 512 512;" xml:space="preserve">
<style type="text/css">
	.st0{fill:#71CCE0;}
	.st1{fill:#DFDFDF;}
	.st2{fill:#4A555F;}
	.st3{fill:#FFD452;}
	.st4{fill:#F58E6F;}
	.st5{fill:#FFFFFF;}
	.st6{fill:none;}
</style>
<g>
	<g>
		<g>
			<path class="st2" d="M337.409,337.978v-53.876c0-46.701-37.995-84.696-84.696-84.696c-46.702,0-84.696,37.995-84.696,84.696
				v223.218h6.292V284.101c0-43.232,35.173-78.405,78.405-78.405s78.404,35.173,78.404,78.405v55.928l36.617,50.132h-38.943v37.487
				c0,18.413-14.978,33.391-33.391,33.391h-34.216v46.279h6.292v-39.988H295.4c21.88,0,39.683-17.802,39.683-39.682v-31.195h45.039
				L337.409,337.978z"/>
		</g>
	</g>
	<g>
		<g>
			<path class="st1" d="M325.794,345.188l-2.018-2.763v-58.323c0-39.185-31.879-71.064-71.064-71.064
				c-39.185,0-71.064,31.879-71.064,71.064v223.215h72.194v-53.62H295.4c14.364,0,26.05-11.687,26.05-26.05v-44.828h31.832
				L325.794,345.188z"/>
		</g>
	</g>
	<g>
		<g>
			<g>
				<path class="st2" d="M170.732,123.571l-5.03,3.777l3.776,5.032l5.03-3.777L170.732,123.571z M155.627,103.442l-5.035,3.777
					l3.777,5.032l5.034-3.777L155.627,103.442z M163.179,113.506l-5.03,3.777l3.777,5.032l5.03-3.777L163.179,113.506z
					 M178.288,133.635l-5.034,3.777l3.777,5.032l5.034-3.777L178.288,133.635z M185.841,143.698l-5.034,3.777l3.777,5.032
					l5.034-3.777L185.841,143.698z M200.95,163.827l-5.032,3.777l3.777,5.032l5.03-3.777L200.95,163.827z M208.502,173.891
					l-5.03,3.777l3.777,5.032l5.03-3.777L208.502,173.891z M193.397,153.762l-5.035,3.777l3.777,5.032l5.035-3.777L193.397,153.762z
					"/>
			</g>
		</g>
	</g>
	<g>
		<g>
			<g>
				<path class="st2" d="M306.704,158.795l5.034,3.777l3.777-5.032l-5.034-3.777L306.704,158.795z M299.152,168.859l5.03,3.777
					l3.777-5.032l-5.032-3.777L299.152,168.859z M348.25,103.442l-3.777,5.032l5.034,3.777l3.777-5.032L348.25,103.442z
					 M291.599,178.924l5.03,3.777l3.776-5.032l-5.03-3.777L291.599,178.924z M314.259,148.73l5.034,3.777l3.777-5.032l-5.035-3.777
					L314.259,148.73z M336.922,118.539l5.03,3.777l3.777-5.032l-5.03-3.777L336.922,118.539z M329.368,128.603l5.03,3.777
					l3.777-5.032l-5.03-3.777L329.368,128.603z M321.812,138.668l5.034,3.777l3.777-5.032l-5.034-3.777L321.812,138.668z"/>
			</g>
		</g>
	</g>
	<g>
		<g>
			<g>
				<path class="st2" d="M112.293,253.054h6.292v-6.292h-6.292V253.054z M124.876,253.054h6.292v-6.292h-6.292V253.054z
					 M137.46,253.054h6.292v-6.292h-6.292V253.054z M150.044,246.762v6.292h6.292v-6.292H150.044z"/>
			</g>
		</g>
	</g>
	<g>
		<g>
			<g>
				<path class="st2" d="M57.718,192.188C25.893,192.188,0,218.08,0,249.908c0,31.826,25.893,57.719,57.718,57.719
					c31.828,0,57.721-25.893,57.721-57.719C115.439,218.08,89.546,192.188,57.718,192.188z M57.718,301.334
					c-28.356,0-51.426-23.07-51.426-51.427c0-28.358,23.07-51.428,51.426-51.428c28.358,0,51.429,23.07,51.429,51.428
					C109.147,278.264,86.077,301.334,57.718,301.334z"/>
			</g>
		</g>
	</g>
	<g>
		<g>
			<path class="st0" d="M57.72,205.82c-24.309,0-44.088,19.777-44.088,44.086s19.779,44.088,44.088,44.088
				c24.31,0,44.086-19.779,44.086-44.088S82.03,205.82,57.72,205.82z"/>
		</g>
	</g>
	<g>
		<g>
			<g>
				<path class="st2" d="M368.248,253.054h6.292v-6.292h-6.292V253.054z M355.664,253.054h6.292v-6.292h-6.292V253.054z
					 M393.415,246.762v6.292h6.292v-6.292H393.415z M380.832,253.054h6.292v-6.292h-6.292V253.054z"/>
			</g>
		</g>
	</g>
	<g>
		<g>
			<g>
				<path class="st2" d="M454.282,192.188c-31.828,0-57.721,25.892-57.721,57.72c0,31.826,25.893,57.719,57.721,57.719
					c31.826,0,57.718-25.893,57.718-57.719C512,218.08,486.107,192.188,454.282,192.188z M454.282,301.334
					c-28.358,0-51.429-23.07-51.429-51.427c0-28.358,23.07-51.428,51.429-51.428c28.356,0,51.426,23.07,51.426,51.428
					C505.708,278.264,482.638,301.334,454.282,301.334z"/>
			</g>
		</g>
	</g>
	<g>
		<g>
			<path class="st0" d="M454.282,205.82c-24.31,0-44.088,19.777-44.088,44.086s19.779,44.088,44.088,44.088
				c24.309,0,44.086-19.779,44.086-44.088S478.591,205.82,454.282,205.82z"/>
		</g>
	</g>
	<g>
		<g>
			<g>
				<path class="st2" d="M120.688,4.681c-31.826,0-57.718,25.893-57.718,57.719c0,31.828,25.893,57.72,57.718,57.72
					c31.828,0,57.721-25.893,57.721-57.72C178.409,30.573,152.516,4.681,120.688,4.681z M120.688,113.828
					c-28.356,0-51.426-23.07-51.426-51.428c0-28.356,23.07-51.427,51.426-51.427c28.358,0,51.429,23.07,51.429,51.427
					C172.117,90.758,149.046,113.828,120.688,113.828z"/>
			</g>
		</g>
	</g>
	<g>
		<g>
			<path class="st0" d="M120.688,18.313c-24.309,0-44.086,19.777-44.086,44.086c0,24.309,19.777,44.088,44.086,44.088
				c24.31,0,44.088-19.779,44.088-44.088C164.776,38.09,144.998,18.313,120.688,18.313z"/>
		</g>
	</g>
	<g>
		<g>
			<g>
				<path class="st2" d="M388.985,4.681c-31.828,0-57.721,25.893-57.721,57.719c0,31.828,25.893,57.72,57.721,57.72
					c31.826,0,57.718-25.893,57.718-57.72C446.704,30.573,420.811,4.681,388.985,4.681z M388.985,113.828
					c-28.358,0-51.429-23.07-51.429-51.428c0-28.356,23.07-51.427,51.429-51.427c28.356,0,51.426,23.07,51.426,51.427
					C440.412,90.758,417.342,113.828,388.985,113.828z"/>
			</g>
		</g>
	</g>
	<g>
		<g>
			<path class="st0" d="M388.985,18.313c-24.309,0-44.088,19.777-44.088,44.086c0,24.309,19.779,44.088,44.088,44.088
				c24.31,0,44.086-19.779,44.086-44.088C433.071,38.09,413.294,18.313,388.985,18.313z"/>
		</g>
	</g>
	<g>
		<g>
			<rect x="99.56" y="47.643" class="st2" width="42.259" height="6.292"/>
		</g>
	</g>
	<g>
		<g>
			<rect x="99.56" y="68.038" class="st2" width="42.259" height="6.292"/>
		</g>
	</g>
	<g>
		<g>
			
				<rect x="31.869" y="245.822" transform="matrix(0.7071 -0.7071 0.7071 0.7071 -158.9 114.3133)" class="st2" width="53.342" height="6.291"/>
		</g>
	</g>
	<g>
		<g>
			
				<rect x="55.394" y="222.297" transform="matrix(0.7071 -0.7071 0.7071 0.7071 -158.8972 114.3088)" class="st2" width="6.291" height="53.342"/>
		</g>
	</g>
	<g>
		<g>
			<rect x="427.611" y="245.822" class="st2" width="53.339" height="6.292"/>
		</g>
	</g>
	<g>
		<g>
			<rect x="451.135" y="222.297" class="st2" width="6.292" height="53.342"/>
		</g>
	</g>
	<g>
		<g>
			<rect x="364.973" y="61.189" class="st2" width="50.511" height="6.292"/>
		</g>
	</g>
	<g>
		<g>
			<rect x="385.291" y="44.257" class="st2" width="9.876" height="6.292"/>
		</g>
	</g>
	<g>
		<g>
			<rect x="385.291" y="76.992" class="st2" width="9.876" height="6.292"/>
		</g>
	</g>
</g>
</svg>
